<svg width="1132" height="804" viewBox="0 0 1132 804" xmlns:xlink="http://www.w3.org/1999/xlink" xmlns:ev="http://www.w3.org/2001/xml-events" xmlns="http://www.w3.org/2000/svg"><style type="text/css"><![CDATA[
.st2 {fill:#000000;font-family:Arial;font-size:10.5pt}
.st1 {fill:#ffffff;font-family:Arial;font-size:10.5pt}
]]></style><defs/><g id="page1" transform="translate(5,5)"><rect stroke="#808080" y="0" fill="#ffffff" width="1123" height="794" x="0"/><g><g><path id="shape1" fill="#fffdf8" d="M0,0L1122.5,0L1122.5,793.7L0,793.7L0,0z"/><path id="shape2" fill="#fffdf8" d="M0,0L1122.5,0L1122.5,144.7L0,144.7L0,0z" transform="translate(0,649)"/></g><path stroke="#dcdcdd" id="shape3" fill="none" d="M0,.2L1122.5,.2M238.2,142.1L481.2,.2M561.3,142.9L561.3,.2M642.2,.2L883.6,142.1M0,117.6L400.3,.2M726.1,.2L1122.5,115.9M0,18.3L1122.5,18.5M801,.2L1122.5,62.2M892.1,.2L1122.5,35.3M317.5,.2L0,63.1M236.6,0L0,35.9M167.9,.2L0,18.6M76.2,.3L0,9.6M972.3,.2L1122.5,17.8M1048.2,.2L1122.5,8.9M0,45.5L1122.5,45.3M0,79L1122.5,79M0,121.3L1122.5,121.6" transform="translate(0,650.84)" stroke-opacity="0.61"/></g><g><g><path stroke="#1c5c81" id="shape5" fill="#1c5c81" d="M0,0L134.7,0L161.9,22.7L134.7,45.4L0,45.4L0,0z"/><g id="shape6" transform="translate(134.7,0)"><path stroke="#f55b55" fill="#f55b55" d="M0,0L987.8,0L987.8,45.4L0,45.4L27.2,22.7L0,0z"/><text class="st1"><tspan y="27.2" x="43.8">Api para consulta de CEP</tspan></text></g></g><g transform="translate(0,772.91)"><g id="shape7"><path stroke="#f55b55" fill="#f55b55" d="M0,0L1010.3,.2L1010.3,20.8L0,20.6L0,0z"/><text class="st1"><tspan y="17" x="128">William Lima Pereira &lt;willguitaradmfar@gmail.com></tspan></text></g><path stroke="#1c5c81" id="shape8" fill="#1c5c81" d="M0,0L112.3,.2L112.3,20.8L0,20.6L0,0z" transform="translate(1010.27,0)"/></g></g><g id="shape9" transform="translate(295.27,174.25)"><path stroke="#000000" fill="#1c5c81" stroke-width="1.12889" d="M0,0L129.9,0L129.9,62L0,62L0,0z"/><text class="st1"><tspan y="27" x="12.4">Arquivo tabulado </tspan><tspan y="44" x="50.4">CEP</tspan></text></g><g id="shape10" transform="translate(612.95,593.62)"><path stroke="#000000" fill="#1c5c81" stroke-width="1.12889" d="M22,0L22,-8.9L198.1,-8.9L198.1,35.5L176.1,35.5L176.1,0M0,0L176.1,0L176.1,44.4L0,44.4L0,0z"/><text class="st1"><tspan y="17" x="8">/ws/0000000/json </tspan><tspan y="34" x="8">/ws/json?q=[search]</tspan></text></g><g id="shape11" transform="translate(855.77,593.62)"><path stroke="#000000" fill="#1c5c81" stroke-width="1.12889" d="M21.2,0L21.2,-8.9L190.4,-8.9L190.4,35.5L169.2,35.5L169.2,0M0,0L169.2,0L169.2,44.4L0,44.4L0,0z"/><text class="st1"><tspan y="17" x="8.1">:Worker run schedule</tspan></text></g><g id="shape12" transform="translate(757.29,380.97)"><path stroke="#000000" fill="#1c5c81" stroke-width="1.12889" d="M0,0L244.7,0L244.7,61.6L0,61.6L0,0z"/><text class="st1"><tspan y="35.3" x="19.4">:Schedule Importacao do arquivo</tspan></text></g><path stroke="#000000" id="shape13" fill="none" stroke-width="1.12889" d="M0,0L0,175.5L397.1,175.5" transform="translate(360.21,236.27)"/><path stroke="#000000" id="shape14" fill="none" stroke-width="1.12889" d="M0,0L454.5,0L454.5,175.7" transform="translate(425.16,205.26)"/><path stroke="#000000" id="shape15" fill="none" stroke-width="1.12889" d="M0,0L0,23.8L-117.5,23.8L-117.5,151" transform="translate(818.47,442.6)"/><path stroke="#000000" id="shape16" fill="none" stroke-width="1.12889" d="M0,0L0,23.7L-0.4,151" transform="translate(940.82,442.6)"/><g id="shape17" transform="translate(476.84,412.13)"><path stroke="#000000" fill="none" stroke-width="1.12889" d="M0,0L186,0L0,0zM135.8,-19.4L174.2,-19.4"/><path stroke="#000000" fill="none" stroke-width="1.12889" stroke-linecap="round" stroke-linejoin="round" d="M127.3,-19.4C127.3,-21.7,129.2,-23.7,131.5,-23.7C133.9,-23.7,135.8,-21.7,135.8,-19.4C135.8,-17.1,133.9,-15.2,131.5,-15.2C129.2,-15.2,127.3,-17.1,127.3,-19.4"/><path stroke="#000000" fill="#000000" stroke-width="1" stroke-linecap="round" d="M174.2,-23.7L182.7,-19.4L174.2,-15.2L174.2,-23.7"/><text class="st2"><tspan y="-13.1" x="-28.5">2: npm run import</tspan></text></g><g id="shape18" transform="translate(552.36,210.35)"><path stroke="#000000" fill="none" stroke-width="1.12889" d="M0,0L186,0L0,0zM68.9,-37.8L111.5,-37.8"/><path stroke="#000000" fill="#000000" stroke-width="1" stroke-linecap="round" d="M111.5,-42L120,-37.8L111.5,-33.5L111.5,-42"/><text class="st2"><tspan y="-12.6" x="-22.1">1: npm run download</tspan></text></g><g id="shape19" transform="matrix(0,1,-1,0,640,514.8)"><path stroke="#000000" fill="none" stroke-width="1.12889" stroke-dasharray="6,4" d="M0,-0L41.3,-0"/><path stroke="#000000" fill="none" stroke-width="1.12889" stroke-linecap="round" stroke-linejoin="round" d="M32.8,-4.3L41.3,-0L32.8,4.2"/></g><g id="shape20" transform="matrix(0,1,-1,0,981.9,512.3)"><path stroke="#000000" fill="none" stroke-width="1.12889" stroke-dasharray="6,4" d="M0,-0L48.5,-0"/><path stroke="#000000" fill="none" stroke-width="1.12889" stroke-linecap="round" stroke-linejoin="round" d="M40,-4.3L48.5,-0L40,4.2"/></g><g id="shape21" transform="translate(593.96,467.22)"><text class="st2"><tspan y="17.2" x="8.4">3:r=npm start</tspan></text></g><g id="shape22" transform="translate(889.14,467.22)"><text class="st2"><tspan y="17.1" x="8.4">2.1: npm run import</tspan></text></g><path stroke="#000000" id="shape23" fill="none" stroke-width="1.12889" d="M0,-0L169.8,-0" transform="matrix(-1,0,0,-1,295.3,205.3)"/><g id="shape24" transform="translate(156.32,205.37)"><path stroke="#000000" fill="none" stroke-width="1.12889" d="M0,0L93,0L0,0zM64.1,-16.4L106.7,-16.4"/><path stroke="#000000" fill="#000000" stroke-width="1" stroke-linecap="round" d="M106.7,-20.6L115.2,-16.4L106.7,-12.1L106.7,-20.6"/><text class="st2"><tspan y="-12.7" x="-64.7">Disponibilizar no </tspan><tspan y="4.3" x="-64.7">S3</tspan></text></g><g transform="translate(576,255.18)"><path stroke="#717070" id="shape25" fill="#717070" d="M12.9,46.6L21.5,46.6L21.5,47.6L11.8,47.6L11.8,26.9C10.5,26.8,9.5,25.8,9.2,24.5L0,24.5L0,23.5L9.2,23.5C9.5,22.2,10.5,21.2,11.8,21.1L11.8,0L21.5,0L21.5,1.1L12.9,1.1L12.9,21.2C13.9,21.6,14.7,22.4,14.9,23.5L14.9,24.5C14.7,25.6,13.9,26.4,12.9,26.8L12.9,46.6z" transform="translate(53.18,4.18)"/><g transform="translate(81.67,0)"><path id="shape26" fill="#00a2ff" d="M0,4.8C0,2.1,8.7,0,19.5,0C30.2,0,38.9,2.1,38.9,4.8C38.9,7.4,30.2,9.5,19.5,9.5C8.7,9.5,0,7.4,0,4.8z" transform="translate(0.69,0)"/><path id="shape27" fill="#00a2ff" d="M40.3,0L40.3,12.5C40.3,12.6,40.3,12.6,40.3,12.6C40.3,15.6,31.3,18,20.2,18C9,18,0,15.6,0,12.6C0,12.6,0,12.6,0,12.5L0,0C1.4,2.6,9.9,4.6,20.2,4.6C30.4,4.6,38.9,2.6,40.3,0z" transform="translate(0,7.08)"/><path id="shape28" fill="#00a2ff" d="M40.3,0L40.3,12.5C40.3,12.6,40.3,12.6,40.3,12.6C40.3,15.6,31.3,18,20.2,18C9,18,0,15.6,0,12.6C0,12.6,0,12.6,0,12.5L0,0C1.4,2.6,9.9,4.6,20.2,4.6C30.4,4.6,38.9,2.6,40.3,0z" transform="translate(0,22.53)"/><path id="shape29" fill="#00a2ff" d="M40.3,0L40.3,12.5C40.3,12.6,40.3,12.6,40.3,12.6C40.3,15.6,31.3,18,20.2,18C9,18,0,15.6,0,12.6C0,12.6,0,12.6,0,12.5L0,0C1.4,2.6,9.9,4.6,20.2,4.6C30.4,4.6,38.9,2.6,40.3,0z" transform="translate(0,37.98)"/></g><g transform="translate(0,6.7)"><path stroke="#717070" id="shape30" fill="#717070" d="M0,4.8L49.8,4.8L42.6,0L4.8,0L0,4.8z" transform="translate(0,38.95)"/><path stroke="#717070" id="shape31" fill="#717070" d="M0,4.8L49.8,4.8L42.6,0L4.8,0L0,4.8z" transform="translate(0,30.74)"/><path stroke="#717070" id="shape32" fill="#717070" d="M0,4.8L49.8,4.8L42.6,0L4.8,0L0,4.8z" transform="translate(0,22.52)"/><path stroke="#717070" id="shape33" fill="#717070" d="M0,4.8L49.8,4.8L42.6,0L4.8,0L0,4.8z" transform="translate(0,14.31)"/><path stroke="#00a2ff" id="shape34" fill="#00a2ff" stroke-width="0.266667" d="M11.6,.2L40.7,0L49.8,11L0,11L11.6,.2zM6.1,8.6L45.8,8.6L40.1,7.8L10,7.8L6.1,8.6zM9.4,6.5L42.5,6.5L37.7,5.7L12.6,5.7L9.4,6.5zM13.1,4.6L38.9,4.6L35.1,3.8L15.6,3.8L13.1,4.6zM16.7,2.7L35.2,2.7L32.5,1.8L18.5,1.8L16.7,2.7z" transform="translate(0,-0)"/></g></g><g id="shape35" transform="translate(578.96,317)"><text class="st2"><tspan y="19.3" x="16.4">ElasticSearch</tspan></text></g></g></svg>